{
    "songname": "Fly Me to The Moon Jazz Organ",
    "artist": "https://musescore.com/user/2538606/scores/4455576",
    "bpm": 120.0,
    "packets": [
        {
            "pitch": 61,
            "instrument": "Piano",
            "note_status": "On",
            "note_delta": 0.0,
            "velocity": 1.0
        },
        {
            "pitch": 62,
            "instrument": "Piano",
            "note_status": "On",
            "note_delta": 0.5,
            "velocity": 1.0
        },
        {
            "pitch": 61,
            "instrument": "Piano",
            "note_status": "Off",
            "note_delta": 0.5,
            "velocity": 1.0
        },
        {
            "pitch": 62,
            "instrument": "Piano",
            "note_status": "Off",
            "note_delta": 0.0,
            "velocity": 1.0
        },
        {
            "pitch": 69,
            "instrument": "Piano",
            "note_status": "On",
            "note_delta": 0.0,
            "velocity": 1.0
        },
        {
            "pitch": 69,
            "instrument": "Piano",
            "note_status": "Off",
            "note_delta": 1.0,
            "velocity": 1.0
        },
        {
            "pitch": 69,
            "instrument": "Piano",
            "note_status": "On",
            "note_delta": 0.0,
            "velocity": 1.0
        },
        {
            "pitch": 50,
            "instrument": "Piano",
            "note_status": "On",
            "note_delta": 0.0,
            "velocity": 1.0
        },
        {
            "pitch": 60,
            "instrument": "Piano",
            "note_status": "On",
            "note_delta": 0.0,
            "velocity": 1.0
        },
        {
            "pitch": 69,
            "instrument": "Piano",
            "note_status": "Off",
            "note_delta": 1.5,
            "velocity": 1.0
        },
        {
            "pitch": 50,
            "instrument": "Piano",
            "note_status": "Off",
            "note_delta": 0.0,
            "velocity": 1.0
        },
        {
            "pitch": 60,
            "instrument": "Piano",
            "note_status": "Off",
            "note_delta": 0.0,
            "velocity": 1.0
        },
        {
            "pitch": 51,
            "instrument": "Piano",
            "note_status": "On",
            "note_delta": 0.0,
            "velocity": 1.0
        },
        {
            "pitch": 60,
            "instrument": "Piano",
            "note_status": "On",
            "note_delta": 0.0,
            "velocity": 1.0
        },
        {
            "pitch": 69,
            "instrument": "Piano",
            "note_status": "On",
            "note_delta": 0.5,
            "velocity": 1.0
        },
        {
            "pitch": 69,
            "instrument": "Piano",
            "note_status": "Off",
            "note_delta": 0.25,
            "velocity": 1.0
        },
        {
            "pitch": 71,
            "instrument": "Piano",
            "note_status": "On",
            "note_delta": 0.0,
            "velocity": 1.0
        },
        {
            "pitch": 71,
            "instrument": "Piano",
            "note_status": "Off",
            "note_delta": 0.25,
            "velocity": 1.0
        },
        {
            "pitch": 72,
            "instrument": "Piano",
            "note_status": "On",
            "note_delta": 0.0,
            "velocity": 1.0
        },
        {
            "pitch": 72,
            "instrument": "Piano",
            "note_status": "Off",
            "note_delta": 1.0,
            "velocity": 1.0
        },
        {
            "pitch": 71,
            "instrument": "Piano",
            "note_status": "On",
            "note_delta": 0.0,
            "velocity": 1.0
        },
        {
            "pitch": 71,
            "instrument": "Piano",
            "note_status": "Off",
            "note_delta": 0.5,
            "velocity": 1.0
        },
        {
            "pitch": 67,
            "instrument": "Piano",
            "note_status": "On",
            "note_delta": 0.0,
            "velocity": 1.0
        },
        {
            "pitch": 67,
            "instrument": "Piano",
            "note_status": "Off",
            "note_delta": 0.5,
            "velocity": 1.0
        },
        {
            "pitch": 51,
            "instrument": "Piano",
            "note_status": "Off",
            "note_delta": 0.0,
            "velocity": 1.0
        },
        {
            "pitch": 60,
            "instrument": "Piano",
            "note_status": "Off",
            "note_delta": 0.0,
            "velocity": 1.0
        },
        {
            "pitch": 55,
            "instrument": "Piano",
            "note_status": "On",
            "note_delta": 0.0,
            "velocity": 1.0
        },
        {
            "pitch": 59,
            "instrument": "Piano",
            "note_status": "On",
            "note_delta": 0.0,
            "velocity": 1.0
        },
        {
            "pitch": 60,
            "instrument": "Piano",
            "note_status": "On",
            "note_delta": 0.0,
            "velocity": 1.0
        },
        {
            "pitch": 64,
            "instrument": "Piano",
            "note_status": "On",
            "note_delta": 0.0,
            "velocity": 1.0
        },
        {
            "pitch": 67,
            "instrument": "Piano",
            "note_status": "On",
            "note_delta": 0.0,
            "velocity": 1.0
        },
        {
            "pitch": 55,
            "instrument": "Piano",
            "note_status": "Off",
            "note_delta": 1.0,
            "velocity": 1.0
        },
        {
            "pitch": 59,
            "instrument": "Piano",
            "note_status": "Off",
            "note_delta": 0.0,
            "velocity": 1.0
        },
        {
            "pitch": 60,
            "instrument": "Piano",
            "note_status": "Off",
            "note_delta": 0.0,
            "velocity": 1.0
        },
        {
            "pitch": 64,
            "instrument": "Piano",
            "note_status": "Off",
            "note_delta": 0.0,
            "velocity": 1.0
        },
        {
            "pitch": 55,
            "instrument": "Piano",
            "note_status": "On",
            "note_delta": 0.0,
            "velocity": 1.0
        },
        {
            "pitch": 59,
            "instrument": "Piano",
            "note_status": "On",
            "note_delta": 0.0,
            "velocity": 1.0
        },
        {
            "pitch": 60,
            "instrument": "Piano",
            "note_status": "On",
            "note_delta": 0.0,
            "velocity": 1.0
        },
        {
            "pitch": 64,
            "instrument": "Piano",
            "note_status": "On",
            "note_delta": 0.0,
            "velocity": 1.0
        },
        {
            "pitch": 55,
            "instrument": "Piano",
            "note_status": "Off",
            "note_delta": 1.5,
            "velocity": 1.0
        },
        {
            "pitch": 59,
            "instrument": "Piano",
            "note_status": "Off",
            "note_delta": 0.0,
            "velocity": 1.0
        },
        {
            "pitch": 60,
            "instrument": "Piano",
            "note_status": "Off",
            "note_delta": 0.0,
            "velocity": 1.0
        },
        {
            "pitch": 64,
            "instrument": "Piano",
            "note_status": "Off",
            "note_delta": 0.0,
            "velocity": 1.0
        },
        {
            "pitch": 55,
            "instrument": "Piano",
            "note_status": "On",
            "note_delta": 0.0,
            "velocity": 1.0
        },
        {
            "pitch": 59,
            "instrument": "Piano",
            "note_status": "On",
            "note_delta": 0.0,
            "velocity": 1.0
        },
        {
            "pitch": 61,
            "instrument": "Piano",
            "note_status": "On",
            "note_delta": 0.0,
            "velocity": 1.0
        },
        {
            "pitch": 64,
            "instrument": "Piano",
            "note_status": "On",
            "note_delta": 0.0,
            "velocity": 1.0
        },
        {
            "pitch": 55,
            "instrument": "Piano",
            "note_status": "Off",
            "note_delta": 1.0,
            "velocity": 1.0
        },
        {
            "pitch": 59,
            "instrument": "Piano",
            "note_status": "Off",
            "note_delta": 0.0,
            "velocity": 1.0
        },
        {
            "pitch": 61,
            "instrument": "Piano",
            "note_status": "Off",
            "note_delta": 0.0,
            "velocity": 1.0
        },
        {
            "pitch": 64,
            "instrument": "Piano",
            "note_status": "Off",
            "note_delta": 0.0,
            "velocity": 1.0
        },
        {
            "pitch": 55,
            "instrument": "Piano",
            "note_status": "On",
            "note_delta": 0.5,
            "velocity": 1.0
        },
        {
            "pitch": 59,
            "instrument": "Piano",
            "note_status": "On",
            "note_delta": 0.0,
            "velocity": 1.0
        },
        {
            "pitch": 61,
            "instrument": "Piano",
            "note_status": "On",
            "note_delta": 0.0,
            "velocity": 1.0
        },
        {
            "pitch": 64,
            "instrument": "Piano",
            "note_status": "On",
            "note_delta": 0.0,
            "velocity": 1.0
        },
        {
            "pitch": 55,
            "instrument": "Piano",
            "note_status": "Off",
            "note_delta": 1.5,
            "velocity": 1.0
        },
        {
            "pitch": 59,
            "instrument": "Piano",
            "note_status": "Off",
            "note_delta": 0.0,
            "velocity": 1.0
        },
        {
            "pitch": 61,
            "instrument": "Piano",
            "note_status": "Off",
            "note_delta": 0.0,
            "velocity": 1.0
        },
        {
            "pitch": 64,
            "instrument": "Piano",
            "note_status": "Off",
            "note_delta": 0.0,
            "velocity": 1.0
        },
        {
            "pitch": 67,
            "instrument": "Piano",
            "note_status": "Off",
            "note_delta": 0.0,
            "velocity": 1.0
        },
        {
            "pitch": 68,
            "instrument": "Piano",
            "note_status": "On",
            "note_delta": 0.0,
            "velocity": 1.0
        },
        {
            "pitch": 68,
            "instrument": "Piano",
            "note_status": "Off",
            "note_delta": 1.0,
            "velocity": 1.0
        },
        {
            "pitch": 69,
            "instrument": "Piano",
            "note_status": "On",
            "note_delta": 0.0,
            "velocity": 1.0
        },
        {
            "pitch": 69,
            "instrument": "Piano",
            "note_status": "Off",
            "note_delta": 0.5,
            "velocity": 1.0
        },
        {
            "pitch": 60,
            "instrument": "Piano",
            "note_status": "On",
            "note_delta": 0.0,
            "velocity": 1.0
        },
        {
            "pitch": 61,
            "instrument": "Piano",
            "note_status": "Off",
            "note_delta": 1.0,
            "velocity": 1.0
        },
        {
            "pitch": 60,
            "instrument": "Piano",
            "note_status": "On",
            "note_delta": 0.0,
            "velocity": 1.0
        },
        {
            "pitch": 50,
            "instrument": "Piano",
            "note_status": "On",
            "note_delta": 0.0,
            "velocity": 1.0
        },
        {
            "pitch": 53,
            "instrument": "Piano",
            "note_status": "On",
            "note_delta": 0.0,
            "velocity": 1.0
        },
        {
            "pitch": 57,
            "instrument": "Piano",
            "note_status": "On",
            "note_delta": 0.0,
            "velocity": 1.0
        },
        {
            "pitch": 60,
            "instrument": "Piano",
            "note_status": "Off",
            "note_delta": 1.5,
            "velocity": 1.0
        },
        {
            "pitch": 50,
            "instrument": "Piano",
            "note_status": "Off",
            "note_delta": 0.0,
            "velocity": 1.0
        },
        {
            "pitch": 53,
            "instrument": "Piano",
            "note_status": "Off",
            "note_delta": 0.0,
            "velocity": 1.0
        },
        {
            "pitch": 57,
            "instrument": "Piano",
            "note_status": "Off",
            "note_delta": 0.0,
            "velocity": 1.0
        },
        {
            "pitch": 43,
            "instrument": "Piano",
            "note_status": "On",
            "note_delta": 0.0,
            "velocity": 1.0
        },
        {
            "pitch": 65,
            "instrument": "Piano",
            "note_status": "On",
            "note_delta": 0.0,
            "velocity": 1.0
        },
        {
            "pitch": 43,
            "instrument": "Piano",
            "note_status": "Off",
            "note_delta": 1.0,
            "velocity": 1.0
        },
        {
            "pitch": 65,
            "instrument": "Piano",
            "note_status": "Off",
            "note_delta": 0.0,
            "velocity": 1.0
        },
        {
            "pitch": 43,
            "instrument": "Piano",
            "note_status": "On",
            "note_delta": 0.0,
            "velocity": 1.0
        },
        {
            "pitch": 65,
            "instrument": "Piano",
            "note_status": "On",
            "note_delta": 0.0,
            "velocity": 1.0
        },
        {
            "pitch": 57,
            "instrument": "Piano",
            "note_status": "On",
            "note_delta": 0.0,
            "velocity": 1.0
        },
        {
            "pitch": 57,
            "instrument": "Piano",
            "note_status": "Off",
            "note_delta": 0.25,
            "velocity": 1.0
        },
        {
            "pitch": 58,
            "instrument": "Piano",
            "note_status": "On",
            "note_delta": 0.0,
            "velocity": 1.0
        },
        {
            "pitch": 58,
            "instrument": "Piano",
            "note_status": "Off",
            "note_delta": 0.25,
            "velocity": 1.0
        },
        {
            "pitch": 43,
            "instrument": "Piano",
            "note_status": "Off",
            "note_delta": 0.0,
            "velocity": 1.0
        },
        {
            "pitch": 65,
            "instrument": "Piano",
            "note_status": "Off",
            "note_delta": 0.0,
            "velocity": 1.0
        },
        {
            "pitch": 59,
            "instrument": "Piano",
            "note_status": "On",
            "note_delta": 0.0,
            "velocity": 1.0
        },
        {
            "pitch": 59,
            "instrument": "Piano",
            "note_status": "Off",
            "note_delta": 0.5,
            "velocity": 1.0
        },
        {
            "pitch": 60,
            "instrument": "Piano",
            "note_status": "On",
            "note_delta": 0.0,
            "velocity": 1.0
        },
        {
            "pitch": 60,
            "instrument": "Piano",
            "note_status": "Off",
            "note_delta": 0.5,
            "velocity": 1.0
        },
        {
            "pitch": 62,
            "instrument": "Piano",
            "note_status": "On",
            "note_delta": 0.0,
            "velocity": 1.0
        },
        {
            "pitch": 62,
            "instrument": "Piano",
            "note_status": "Off",
            "note_delta": 0.5,
            "velocity": 1.0
        },
        {
            "pitch": 60,
            "instrument": "Piano",
            "note_status": "On",
            "note_delta": 0.0,
            "velocity": 1.0
        },
        {
            "pitch": 60,
            "instrument": "Piano",
            "note_status": "Off",
            "note_delta": 1.0,
            "velocity": 1.0
        },
        {
            "pitch": 36,
            "instrument": "Piano",
            "note_status": "On",
            "note_delta": 0.0,
            "velocity": 1.0
        },
        {
            "pitch": 52,
            "instrument": "Piano",
            "note_status": "On",
            "note_delta": 0.0,
            "velocity": 1.0
        },
        {
            "pitch": 56,
            "instrument": "Piano",
            "note_status": "On",
            "note_delta": 0.0,
            "velocity": 1.0
        },
        {
            "pitch": 58,
            "instrument": "Piano",
            "note_status": "On",
            "note_delta": 0.0,
            "velocity": 1.0
        },
        {
            "pitch": 36,
            "instrument": "Piano",
            "note_status": "Off",
            "note_delta": 1.5,
            "velocity": 1.0
        },
        {
            "pitch": 52,
            "instrument": "Piano",
            "note_status": "Off",
            "note_delta": 0.0,
            "velocity": 1.0
        },
        {
            "pitch": 56,
            "instrument": "Piano",
            "note_status": "Off",
            "note_delta": 0.0,
            "velocity": 1.0
        },
        {
            "pitch": 58,
            "instrument": "Piano",
            "note_status": "Off",
            "note_delta": 0.0,
            "velocity": 1.0
        },
        {
            "pitch": 36,
            "instrument": "Piano",
            "note_status": "On",
            "note_delta": 0.0,
            "velocity": 1.0
        },
        {
            "pitch": 52,
            "instrument": "Piano",
            "note_status": "On",
            "note_delta": 0.0,
            "velocity": 1.0
        },
        {
            "pitch": 56,
            "instrument": "Piano",
            "note_status": "On",
            "note_delta": 0.0,
            "velocity": 1.0
        },
        {
            "pitch": 59,
            "instrument": "Piano",
            "note_status": "On",
            "note_delta": 0.0,
            "velocity": 1.0
        },
        {
            "pitch": 36,
            "instrument": "Piano",
            "note_status": "Off",
            "note_delta": 1.0,
            "velocity": 1.0
        },
        {
            "pitch": 52,
            "instrument": "Piano",
            "note_status": "Off",
            "note_delta": 0.0,
            "velocity": 1.0
        },
        {
            "pitch": 56,
            "instrument": "Piano",
            "note_status": "Off",
            "note_delta": 0.0,
            "velocity": 1.0
        },
        {
            "pitch": 59,
            "instrument": "Piano",
            "note_status": "Off",
            "note_delta": 0.0,
            "velocity": 1.0
        }
    ]
}