{
    "songname": "Sweet Dreams",
    "artist": "Eurythmics",
    "bpm": 125.0,
    "packets": [
        {
            "pitch": 36,
            "instrument": "Saw",
            "note_status": "On",
            "note_delta": 0.0,
            "velocity": 1.0
        },
        {
            "pitch": 36,
            "instrument": "Saw",
            "note_status": "Off",
            "note_delta": 0.5,
            "velocity": 1.0
        },
        {
            "pitch": 36,
            "instrument": "Saw",
            "note_status": "On",
            "note_delta": 0.0,
            "velocity": 1.0
        },
        {
            "pitch": 36,
            "instrument": "Saw",
            "note_status": "Off",
            "note_delta": 0.5,
            "velocity": 1.0
        },
        {
            "pitch": 48,
            "instrument": "Saw",
            "note_status": "On",
            "note_delta": 0.0,
            "velocity": 1.0
        },
        {
            "pitch": 48,
            "instrument": "Saw",
            "note_status": "Off",
            "note_delta": 0.5,
            "velocity": 1.0
        },
        {
            "pitch": 48,
            "instrument": "Saw",
            "note_status": "On",
            "note_delta": 0.0,
            "velocity": 1.0
        },
        {
            "pitch": 48,
            "instrument": "Saw",
            "note_status": "Off",
            "note_delta": 0.5,
            "velocity": 1.0
        },
        {
            "pitch": 51,
            "instrument": "Saw",
            "note_status": "On",
            "note_delta": 0.0,
            "velocity": 1.0
        },
        {
            "pitch": 51,
            "instrument": "Saw",
            "note_status": "Off",
            "note_delta": 0.5,
            "velocity": 1.0
        },
        {
            "pitch": 51,
            "instrument": "Saw",
            "note_status": "On",
            "note_delta": 0.0,
            "velocity": 1.0
        },
        {
            "pitch": 51,
            "instrument": "Saw",
            "note_status": "Off",
            "note_delta": 0.5,
            "velocity": 1.0
        },
        {
            "pitch": 48,
            "instrument": "Saw",
            "note_status": "On",
            "note_delta": 0.0,
            "velocity": 1.0
        },
        {
            "pitch": 48,
            "instrument": "Saw",
            "note_status": "Off",
            "note_delta": 0.5,
            "velocity": 1.0
        },
        {
            "pitch": 48,
            "instrument": "Saw",
            "note_status": "On",
            "note_delta": 0.0,
            "velocity": 1.0
        },
        {
            "pitch": 48,
            "instrument": "Saw",
            "note_status": "Off",
            "note_delta": 0.5,
            "velocity": 1.0
        },
        {
            "pitch": 44,
            "instrument": "Saw",
            "note_status": "On",
            "note_delta": 0.0,
            "velocity": 1.0
        },
        {
            "pitch": 44,
            "instrument": "Saw",
            "note_status": "Off",
            "note_delta": 0.5,
            "velocity": 1.0
        },
        {
            "pitch": 44,
            "instrument": "Saw",
            "note_status": "On",
            "note_delta": 0.0,
            "velocity": 1.0
        },
        {
            "pitch": 44,
            "instrument": "Saw",
            "note_status": "Off",
            "note_delta": 0.5,
            "velocity": 1.0
        },
        {
            "pitch": 44,
            "instrument": "Saw",
            "note_status": "On",
            "note_delta": 0.0,
            "velocity": 1.0
        },
        {
            "pitch": 44,
            "instrument": "Saw",
            "note_status": "Off",
            "note_delta": 0.5,
            "velocity": 1.0
        },
        {
            "pitch": 48,
            "instrument": "Saw",
            "note_status": "On",
            "note_delta": 0.0,
            "velocity": 1.0
        },
        {
            "pitch": 48,
            "instrument": "Saw",
            "note_status": "Off",
            "note_delta": 0.5,
            "velocity": 1.0
        },
        {
            "pitch": 43,
            "instrument": "Saw",
            "note_status": "On",
            "note_delta": 0.0,
            "velocity": 1.0
        },
        {
            "pitch": 43,
            "instrument": "Saw",
            "note_status": "Off",
            "note_delta": 0.5,
            "velocity": 1.0
        },
        {
            "pitch": 43,
            "instrument": "Saw",
            "note_status": "On",
            "note_delta": 0.0,
            "velocity": 1.0
        },
        {
            "pitch": 43,
            "instrument": "Saw",
            "note_status": "Off",
            "note_delta": 0.5,
            "velocity": 1.0
        },
        {
            "pitch": 46,
            "instrument": "Saw",
            "note_status": "On",
            "note_delta": 0.0,
            "velocity": 1.0
        },
        {
            "pitch": 46,
            "instrument": "Saw",
            "note_status": "Off",
            "note_delta": 0.5,
            "velocity": 1.0
        },
        {
            "pitch": 48,
            "instrument": "Saw",
            "note_status": "On",
            "note_delta": 0.0,
            "velocity": 1.0
        },
        {
            "pitch": 48,
            "instrument": "Saw",
            "note_status": "Off",
            "note_delta": 0.5,
            "velocity": 1.0
        },
        {
            "pitch": 36,
            "instrument": "Saw",
            "note_status": "On",
            "note_delta": 0.0,
            "velocity": 1.0
        },
        {
            "pitch": 36,
            "instrument": "Saw",
            "note_status": "Off",
            "note_delta": 0.5,
            "velocity": 1.0
        },
        {
            "pitch": 36,
            "instrument": "Saw",
            "note_status": "On",
            "note_delta": 0.0,
            "velocity": 1.0
        },
        {
            "pitch": 36,
            "instrument": "Saw",
            "note_status": "Off",
            "note_delta": 0.5,
            "velocity": 1.0
        },
        {
            "pitch": 48,
            "instrument": "Saw",
            "note_status": "On",
            "note_delta": 0.0,
            "velocity": 1.0
        },
        {
            "pitch": 48,
            "instrument": "Saw",
            "note_status": "Off",
            "note_delta": 0.5,
            "velocity": 1.0
        },
        {
            "pitch": 48,
            "instrument": "Saw",
            "note_status": "On",
            "note_delta": 0.0,
            "velocity": 1.0
        },
        {
            "pitch": 48,
            "instrument": "Saw",
            "note_status": "Off",
            "note_delta": 0.5,
            "velocity": 1.0
        },
        {
            "pitch": 51,
            "instrument": "Saw",
            "note_status": "On",
            "note_delta": 0.0,
            "velocity": 1.0
        },
        {
            "pitch": 51,
            "instrument": "Saw",
            "note_status": "Off",
            "note_delta": 0.5,
            "velocity": 1.0
        },
        {
            "pitch": 51,
            "instrument": "Saw",
            "note_status": "On",
            "note_delta": 0.0,
            "velocity": 1.0
        },
        {
            "pitch": 51,
            "instrument": "Saw",
            "note_status": "Off",
            "note_delta": 0.5,
            "velocity": 1.0
        },
        {
            "pitch": 48,
            "instrument": "Saw",
            "note_status": "On",
            "note_delta": 0.0,
            "velocity": 1.0
        },
        {
            "pitch": 48,
            "instrument": "Saw",
            "note_status": "Off",
            "note_delta": 0.5,
            "velocity": 1.0
        },
        {
            "pitch": 48,
            "instrument": "Saw",
            "note_status": "On",
            "note_delta": 0.0,
            "velocity": 1.0
        },
        {
            "pitch": 48,
            "instrument": "Saw",
            "note_status": "Off",
            "note_delta": 0.5,
            "velocity": 1.0
        },
        {
            "pitch": 44,
            "instrument": "Saw",
            "note_status": "On",
            "note_delta": 0.0,
            "velocity": 1.0
        },
        {
            "pitch": 44,
            "instrument": "Saw",
            "note_status": "Off",
            "note_delta": 0.5,
            "velocity": 1.0
        },
        {
            "pitch": 44,
            "instrument": "Saw",
            "note_status": "On",
            "note_delta": 0.0,
            "velocity": 1.0
        },
        {
            "pitch": 44,
            "instrument": "Saw",
            "note_status": "Off",
            "note_delta": 0.5,
            "velocity": 1.0
        },
        {
            "pitch": 44,
            "instrument": "Saw",
            "note_status": "On",
            "note_delta": 0.0,
            "velocity": 1.0
        },
        {
            "pitch": 44,
            "instrument": "Saw",
            "note_status": "Off",
            "note_delta": 0.5,
            "velocity": 1.0
        },
        {
            "pitch": 48,
            "instrument": "Saw",
            "note_status": "On",
            "note_delta": 0.0,
            "velocity": 1.0
        },
        {
            "pitch": 48,
            "instrument": "Saw",
            "note_status": "Off",
            "note_delta": 0.5,
            "velocity": 1.0
        },
        {
            "pitch": 43,
            "instrument": "Saw",
            "note_status": "On",
            "note_delta": 0.0,
            "velocity": 1.0
        },
        {
            "pitch": 43,
            "instrument": "Saw",
            "note_status": "Off",
            "note_delta": 0.5,
            "velocity": 1.0
        },
        {
            "pitch": 43,
            "instrument": "Saw",
            "note_status": "On",
            "note_delta": 0.0,
            "velocity": 1.0
        },
        {
            "pitch": 43,
            "instrument": "Saw",
            "note_status": "Off",
            "note_delta": 0.5,
            "velocity": 1.0
        },
        {
            "pitch": 46,
            "instrument": "Saw",
            "note_status": "On",
            "note_delta": 0.0,
            "velocity": 1.0
        },
        {
            "pitch": 46,
            "instrument": "Saw",
            "note_status": "Off",
            "note_delta": 0.5,
            "velocity": 1.0
        },
        {
            "pitch": 48,
            "instrument": "Saw",
            "note_status": "On",
            "note_delta": 0.0,
            "velocity": 1.0
        },
        {
            "pitch": 48,
            "instrument": "Saw",
            "note_status": "Off",
            "note_delta": 0.5,
            "velocity": 1.0
        },
        {
            "pitch": 36,
            "instrument": "Saw",
            "note_status": "On",
            "note_delta": 0.0,
            "velocity": 1.0
        },
        {
            "pitch": 36,
            "instrument": "Saw",
            "note_status": "Off",
            "note_delta": 0.5,
            "velocity": 1.0
        },
        {
            "pitch": 36,
            "instrument": "Saw",
            "note_status": "On",
            "note_delta": 0.0,
            "velocity": 1.0
        },
        {
            "pitch": 36,
            "instrument": "Saw",
            "note_status": "Off",
            "note_delta": 0.5,
            "velocity": 1.0
        },
        {
            "pitch": 48,
            "instrument": "Saw",
            "note_status": "On",
            "note_delta": 0.0,
            "velocity": 1.0
        },
        {
            "pitch": 63,
            "instrument": "Piano",
            "note_status": "On",
            "note_delta": 0.0,
            "velocity": 1.0
        },
        {
            "pitch": 75,
            "instrument": "Piano",
            "note_status": "On",
            "note_delta": 0.0,
            "velocity": 1.0
        },
        {
            "pitch": 48,
            "instrument": "Saw",
            "note_status": "Off",
            "note_delta": 0.5,
            "velocity": 1.0
        },
        {
            "pitch": 48,
            "instrument": "Saw",
            "note_status": "On",
            "note_delta": 0.0,
            "velocity": 1.0
        },
        {
            "pitch": 48,
            "instrument": "Saw",
            "note_status": "Off",
            "note_delta": 0.5,
            "velocity": 1.0
        },
        {
            "pitch": 63,
            "instrument": "Piano",
            "note_status": "Off",
            "note_delta": 0.0,
            "velocity": 1.0
        },
        {
            "pitch": 75,
            "instrument": "Piano",
            "note_status": "Off",
            "note_delta": 0.0,
            "velocity": 1.0
        },
        {
            "pitch": 51,
            "instrument": "Saw",
            "note_status": "On",
            "note_delta": 0.0,
            "velocity": 1.0
        },
        {
            "pitch": 63,
            "instrument": "Piano",
            "note_status": "On",
            "note_delta": 0.0,
            "velocity": 1.0
        },
        {
            "pitch": 75,
            "instrument": "Piano",
            "note_status": "On",
            "note_delta": 0.0,
            "velocity": 1.0
        },
        {
            "pitch": 51,
            "instrument": "Saw",
            "note_status": "Off",
            "note_delta": 0.5,
            "velocity": 1.0
        },
        {
            "pitch": 51,
            "instrument": "Saw",
            "note_status": "On",
            "note_delta": 0.0,
            "velocity": 1.0
        },
        {
            "pitch": 51,
            "instrument": "Saw",
            "note_status": "Off",
            "note_delta": 0.5,
            "velocity": 1.0
        },
        {
            "pitch": 48,
            "instrument": "Saw",
            "note_status": "On",
            "note_delta": 0.0,
            "velocity": 1.0
        },
        {
            "pitch": 60,
            "instrument": "Piano",
            "note_status": "On",
            "note_delta": 0.0,
            "velocity": 1.0
        },
        {
            "pitch": 72,
            "instrument": "Piano",
            "note_status": "On",
            "note_delta": 0.0,
            "velocity": 1.0
        },
        {
            "pitch": 48,
            "instrument": "Saw",
            "note_status": "Off",
            "note_delta": 0.5,
            "velocity": 1.0
        },
        {
            "pitch": 60,
            "instrument": "Piano",
            "note_status": "Off",
            "note_delta": 0.0,
            "velocity": 1.0
        },
        {
            "pitch": 72,
            "instrument": "Piano",
            "note_status": "Off",
            "note_delta": 0.0,
            "velocity": 1.0
        },
        {
            "pitch": 48,
            "instrument": "Saw",
            "note_status": "On",
            "note_delta": 0.0,
            "velocity": 1.0
        },
        {
            "pitch": 63,
            "instrument": "Piano",
            "note_status": "On",
            "note_delta": 0.0,
            "velocity": 1.0
        },
        {
            "pitch": 75,
            "instrument": "Piano",
            "note_status": "On",
            "note_delta": 0.0,
            "velocity": 1.0
        },
        {
            "pitch": 48,
            "instrument": "Saw",
            "note_status": "Off",
            "note_delta": 0.5,
            "velocity": 1.0
        },
        {
            "pitch": 46,
            "instrument": "Saw",
            "note_status": "On",
            "note_delta": 0.0,
            "velocity": 1.0
        },
        {
            "pitch": 46,
            "instrument": "Saw",
            "note_status": "Off",
            "note_delta": 0.5,
            "velocity": 1.0
        },
        {
            "pitch": 63,
            "instrument": "Piano",
            "note_status": "Off",
            "note_delta": 0.0,
            "velocity": 1.0
        },
        {
            "pitch": 75,
            "instrument": "Piano",
            "note_status": "Off",
            "note_delta": 0.0,
            "velocity": 1.0
        },
        {
            "pitch": 46,
            "instrument": "Saw",
            "note_status": "On",
            "note_delta": 0.0,
            "velocity": 1.0
        },
        {
            "pitch": 63,
            "instrument": "Piano",
            "note_status": "On",
            "note_delta": 0.0,
            "velocity": 1.0
        },
        {
            "pitch": 75,
            "instrument": "Piano",
            "note_status": "On",
            "note_delta": 0.0,
            "velocity": 1.0
        },
        {
            "pitch": 46,
            "instrument": "Saw",
            "note_status": "Off",
            "note_delta": 0.5,
            "velocity": 1.0
        },
        {
            "pitch": 63,
            "instrument": "Piano",
            "note_status": "Off",
            "note_delta": 0.0,
            "velocity": 1.0
        },
        {
            "pitch": 75,
            "instrument": "Piano",
            "note_status": "Off",
            "note_delta": 0.0,
            "velocity": 1.0
        },
        {
            "pitch": 46,
            "instrument": "Saw",
            "note_status": "On",
            "note_delta": 0.0,
            "velocity": 1.0
        },
        {
            "pitch": 46,
            "instrument": "Saw",
            "note_status": "Off",
            "note_delta": 0.5,
            "velocity": 1.0
        },
        {
            "pitch": 48,
            "instrument": "Saw",
            "note_status": "On",
            "note_delta": 0.0,
            "velocity": 1.0
        },
        {
            "pitch": 63,
            "instrument": "Piano",
            "note_status": "On",
            "note_delta": 0.0,
            "velocity": 1.0
        },
        {
            "pitch": 75,
            "instrument": "Piano",
            "note_status": "On",
            "note_delta": 0.0,
            "velocity": 1.0
        },
        {
            "pitch": 48,
            "instrument": "Saw",
            "note_status": "Off",
            "note_delta": 0.5,
            "velocity": 1.0
        },
        {
            "pitch": 63,
            "instrument": "Piano",
            "note_status": "Off",
            "note_delta": 0.0,
            "velocity": 1.0
        },
        {
            "pitch": 75,
            "instrument": "Piano",
            "note_status": "Off",
            "note_delta": 0.0,
            "velocity": 1.0
        },
        {
            "pitch": 43,
            "instrument": "Saw",
            "note_status": "On",
            "note_delta": 0.0,
            "velocity": 1.0
        },
        {
            "pitch": 62,
            "instrument": "Piano",
            "note_status": "On",
            "note_delta": 0.0,
            "velocity": 1.0
        },
        {
            "pitch": 74,
            "instrument": "Piano",
            "note_status": "On",
            "note_delta": 0.0,
            "velocity": 1.0
        },
        {
            "pitch": 43,
            "instrument": "Saw",
            "note_status": "Off",
            "note_delta": 0.5,
            "velocity": 1.0
        },
        {
            "pitch": 43,
            "instrument": "Saw",
            "note_status": "On",
            "note_delta": 0.0,
            "velocity": 1.0
        },
        {
            "pitch": 43,
            "instrument": "Saw",
            "note_status": "Off",
            "note_delta": 0.5,
            "velocity": 1.0
        },
        {
            "pitch": 46,
            "instrument": "Saw",
            "note_status": "On",
            "note_delta": 0.0,
            "velocity": 1.0
        },
        {
            "pitch": 46,
            "instrument": "Saw",
            "note_status": "Off",
            "note_delta": 0.5,
            "velocity": 1.0
        },
        {
            "pitch": 48,
            "instrument": "Saw",
            "note_status": "On",
            "note_delta": 0.0,
            "velocity": 1.0
        },
        {
            "pitch": 48,
            "instrument": "Saw",
            "note_status": "Off",
            "note_delta": 0.5,
            "velocity": 1.0
        },
        {
            "pitch": 62,
            "instrument": "Piano",
            "note_status": "Off",
            "note_delta": 0.0,
            "velocity": 1.0
        },
        {
            "pitch": 74,
            "instrument": "Piano",
            "note_status": "Off",
            "note_delta": 0.0,
            "velocity": 1.0
        }
    ]
}